<?xml version="1.0" encoding="utf-8"?>
<!-- Generator: Adobe Illustrator 20.1.0, SVG Export Plug-In . SVG Version: 6.00 Build 0)  -->
<svg version="1.1" id="Слой_1" xmlns="http://www.w3.org/2000/svg" xmlns:xlink="http://www.w3.org/1999/xlink" x="0px" y="0px"
	 viewBox="0 0 185 60" style="enable-background:new 0 0 185 60;" xml:space="preserve">
<style type="text/css">
	.st0{fill:#131414;}
	.st1{fill:#4A7D5C;}
	.st2{font-family:'Roboto-Regular';}
	.st3{font-size:10.8273px;}
	.st4{font-family:'Roboto-Italic';}
</style>
<g>
	<g>
		<g>
			<path class="st0" d="M38.3,38c0,0-0.2,0.1-0.4,0.2c-0.5,0.2-1.5,0.3-2.1,0.5c-0.5,0.1-1.1,0.3-1.7,0.5c-1.6,0.7-2.4,1.8-2.9,3.8
				c-0.3,1.2-0.1,2.2,0.4,2.8c0.4,0.5,1,0.7,1.7,0.7c2.9,0,3.8-2.8,4.2-4.8L38.3,38L38.3,38 M38.3,24.6c3.9,0,6.3,0.7,7.5,2.2
				c0.7,0.8,1,1.9,1,3.2c0,0.8-0.1,1.6-0.3,2.5l-2.7,12.9c-0.4,1.8-0.6,3.2-0.6,4.3c0,0.4,0,0.7,0.1,1c-1.1,0-6.5,0-7.4,0
				c0-0.1,0-0.2,0-0.2c0-0.5,0-1.1,0.1-1.7l0.1-1.1h-0.4l-0.2,0.2c-1.3,2.1-4.3,3.5-6.9,3.5c-2.1,0-3.7-0.5-4.6-1.6
				c-1-1.2-1.2-3.1-0.7-5.5c1-4.9,3.2-6.9,8.8-8.2l3.7-0.8c2.2-0.5,3.2-1.4,3.6-3.3c0.2-1,0.1-1.8-0.3-2.4c-0.4-0.5-1.1-0.8-1.9-0.8
				c-2,0-3,1-3.7,3.5c-0.7,0-5.5,0-6.6,0C28.9,25.7,34.8,24.6,38.3,24.6z"/>
			<path class="st0" d="M71.8,37.7c-0.8,3.8-0.8,5.3,0,6.2c0.4,0.5,1,0.7,1.7,0.7c2.2,0,3.2-1.3,4.4-6.7c0.8-3.8,0.9-6.3,0.1-7.2
				C77.5,30.2,77,30,76.3,30C74.1,30.2,72.8,32.5,71.8,37.7 M64.6,48.5c-1.6-1.9-1.9-4.9-0.8-10.3c2.4-11.6,6.8-13.6,10.6-13.6
				c1.8,0,4.6,0.7,4.9,3.9V29h0.5c0,0,0.6-3,0.8-3.7c0.7,0,6.1,0,7.2,0c-0.3,1.3-5.3,25.5-5.3,25.5c-1.3,6.1-5.2,9.2-12.3,9.2
				c-6.7,0-7.7-3.9-7.8-5.2c-0.1-0.5,0.1-1.8,0.1-1.8c0.8,0,6,0,7,0l0,0c0,0.6,0,1.5,0.3,1.8c0.3,0.4,0.5,0.8,1.6,0.8
				c1.5,0,2.9-0.4,3.6-3.7l1.2-5.7h-0.6l-0.3,0.3c-1.4,2.5-4.1,3.7-6.9,3.7C66.8,50.1,65.4,49.6,64.6,48.5z"/>
			<path class="st0" d="M99.3,25.3c-0.3,1.2-5.1,24.7-5.3,25.5c-0.7,0-6.7,0-7.8,0c0.3-1.2,5.1-24.7,5.3-25.5
				C92.3,25.3,98.2,25.3,99.3,25.3"/>
			<path class="st0" d="M113.4,16.8c-0.3,1.3-6.9,33.1-7.1,33.9c-0.7,0-6.7,0-7.8,0c0.3-1.3,6.9-33.1,7.1-33.9
				C106.3,16.8,112.3,16.8,113.4,16.8"/>
			<path class="st0" d="M125.8,16.8c-0.3,1.3-6.9,33.1-7.1,33.9c-0.7,0-6.7,0-7.8,0c0.3-1.3,6.9-33.1,7.1-33.9
				C118.8,16.8,124.7,16.8,125.8,16.8"/>
			<path class="st0" d="M65.7,24.6c-2.5,0-5.6,1.8-7,4.6l-0.2,0.3h-0.6c0,0,0.7-3.3,0.9-4.2c-0.2,0-0.4,0-0.7,0l0,0
				c-0.8,0-6.3,0-7.4,0c0,0.3,0.1,0.7,0.1,1c0,0.8-0.1,1.8-0.3,2.9c-1.4,7-4.3,20.6-4.5,21.6c1.1,0,7,0,7.8,0c0.5-2.4,2.9-14,2.9-14
				c0.7-3.5,2.8-5.2,6.5-5.2c0.6,0,1.2,0,1.8,0.1c0.2-0.8,1.3-6.1,1.5-7.1C66.1,24.6,65.7,24.6,65.7,24.6"/>
			<path class="st0" d="M1.8,49.5c-1.9-2.4-2-6.8-0.3-15c2.8-13.3,6.7-17.9,15.7-17.9c3.6,0,6.2,0.9,7.6,2.6
				c0.9,1.1,1.3,2.6,1.4,4.5c0,1-0.1,2.2-0.4,3.4c0,0-0.2,1.1-0.4,1.8c-0.7,0-7.6,0-7.6,0s0.6-3.6,0.6-4.4c0-0.9,0-1.4-0.4-1.8
				c-0.4-0.5-0.9-0.9-1.7-0.9c-3.4,0-4.5,3.2-6.4,12.4C8.4,41.4,7.9,44.7,9,46c0.4,0.5,1.1,0.8,2,0.8c2.7,0,3.7-2.3,5.1-8.6
				c0.7,0,6.6,0,7.7,0c-0.2,0.7-0.4,2-0.4,2C21.8,48,17.2,51.9,9.9,51.9C5.7,52,3.2,51.2,1.8,49.5"/>
			<polyline class="st0" points="127.4,16.8 129.8,16.8 129.6,17.2 128.6,17.2 128.1,20.5 127.6,20.5 128.3,17.2 127.3,17.2 			"/>
			<path class="st0" d="M132.6,16.8h0.7l-0.7,3.7h-0.4l0.6-3.1c0-0.2,0.1-0.3,0.1-0.5l0,0c-0.1,0.2-0.2,0.4-0.2,0.5l-1.4,3h-0.5
				l-0.2-3.1c0-0.1,0-0.2,0-0.5l0,0c0,0.2-0.1,0.3-0.1,0.5l-0.6,3h-0.4l0.8-3.7h0.7l0.1,2.9c0,0.2,0,0.3,0,0.6l0,0
				c0.1-0.2,0.1-0.4,0.2-0.6"/>
			<path class="st1" d="M99.9,22.3c0.6-14-16.3-24.5-32.1-21.2c-15.7,3.3-23.4,17-25.4,21.2H45c3.5-5.8,7-10.3,12.9-11.9
				c3.8-1.1,6.8-0.8,14,3.3c3.4,1.9,11,7.6,19.2,8.7C94.8,22.7,99.9,22.3,99.9,22.3"/>
		</g>
	</g>
</g>
<text transform="matrix(1 0 0 1 140.5003 24.6107)"><tspan x="0" y="0" class="st0 st2 st3">Helping </tspan><tspan x="0" y="13" class="st0 st2 st3">the world</tspan><tspan x="0" y="26" class="st1 st4 st3">thrive</tspan></text>
</svg>
