<?xml version="1.0" encoding="utf-8"?>
<!-- Generator: Adobe Illustrator 20.1.0, SVG Export Plug-In . SVG Version: 6.00 Build 0)  -->
<svg version="1.1" id="Слой_1" xmlns="http://www.w3.org/2000/svg" xmlns:xlink="http://www.w3.org/1999/xlink" x="0px" y="0px"
	 viewBox="0 0 722 343" style="enable-background:new 0 0 722 343;" xml:space="preserve">
<style type="text/css">
	.st0{fill:#3C282A;}
	.st1{fill:#8F9351;}
	.st2{fill:#CED74F;}
	.st3{fill:url(#SVGID_1_);}
	.st4{fill:url(#SVGID_2_);}
	.st5{fill:url(#SVGID_3_);}
</style>
<g transform="translate(0.000000,768.000000) scale(0.100000,-0.100000)">
	<path class="st0" d="M6654.7,7246.6c-3-4,7-23.1,23.1-43.2c48.2-57.2,43.2-61.3-68.3-61.3c-93.4,0-100.4-1-123.5-26.1l-24.1-26.1
		v-552.3v-552.3l28.1-24.1c26.1-22.1,36.1-24.1,146.6-24.1c114.5,0,119.5,1,157.6,28.1c81.3,59.2,80.3,62.3-45.2,62.3h-111.5v512.1
		v512.1h160.7h160.7v-90.4v-90.4h-145.6c-80.3,0-145.6-3-145.6-6s5-24.1,11-48.2l11-43.2l90.4-7c50.2-3,111.5-6,135.6-6h43.2v-75.3
		V6611l-142.6-3l-143.6-3l3-35.1c11-141.6,168.7-456.9,296.2-594.4l35.1-38.2h106.4c58.2,0,106.4,3,106.4,6c0,3-26.1,36.1-58.2,72.3
		c-94.4,108.4-124.5,150.6-116.5,164.7c4,7,25.1,35.1,47.2,62.3c34.1,44.2,87.4,135.6,87.4,151.6c0,3-34.1,5-75.3,5h-75.3
		l-31.1-50.2c-17.1-27.1-34.1-50.2-38.2-50.2c-11,0-91.4,182.8-91.4,205.8c0,2,48.2,5,106.4,7c102.4,3,107.4,4,130.5,31.1l24.1,28.1
		v261.1V7093l-25.1,24.1c-22.1,23.1-32.1,25.1-119.5,25.1h-95.4l-20.1,44.2c-10,24.1-28.1,49.2-39.2,55.2
		C6808.3,7253.7,6665.7,7256.7,6654.7,7246.6z"/>
	<path class="st0" d="M4739.8,7117.1v-105.4h-262.1h-262.1l-29.1-29.1l-29.1-29.1V6600v-353.5l29.1-29.1l29.1-29.1h262.1h262.1
		v-125.5v-126.5l118.5,3l117.5,3l3,123.5l3,122.5h251c255,0,280.1,3,307.3,39.2c9,12,12,108.4,13.1,375.5v359.5l-25.1,24.1
		l-24.1,25.1h-262.1h-261.1v105.4v105.4h-120.5h-120.5V7117.1z M4737.8,6603l-3-319.3h-175.7h-175.7l-3,319.3l-2,318.3h180.7h180.7
		L4737.8,6603z M5337.3,6600v-316.3l-177.7-3l-178.7-2V6600v321.3l178.7-2l177.7-3V6600z"/>
	<path class="st0" d="M6015.1,7006.7c0-95.4-4-165.7-9-165.7c-18.1,0-53.2,115.5-59.2,195.8l-7,80.3l-79.3,3l-79.3,3l6-75.3
		c7-85.4,37.2-173.7,73.3-216.9c26.1-30.1,76.3-50.2,127.5-50.2c26.1,0,28.1-2,25.1-37.2l-3-38.2l-102.4-3l-103.4-3v-44.2V6610
		h105.4h105.4v-40.2v-40.2h-65.3c-100.4,0-104.4-5-126.5-205.8c-6-55.2-22.1-134.6-35.1-175.7s-24.1-78.3-24.1-82.3
		c0-5,36.1-8,79.3-8h79.3l16.1,41.2c17.1,41.2,40.2,178.7,51.2,302.2c4,37.2,11,70.3,16.1,73.3c5,4,9-102.4,9-265.1v-272.1h80.3
		h80.3v273.1c0,292.2,11,342.4,30.1,138.6c11-113.5,28.1-208.9,49.2-263.1c10-27.1,12-28.1,91.4-28.1c44.2,0,80.3,3,80.3,8
		c0,4-11,41.2-24.1,82.3c-13.1,41.2-29.1,120.5-35.1,175.7c-22.1,200.8-26.1,205.8-126.5,205.8h-65.3v40.2v40.2h105.4h105.4v45.2
		v44.2l-102.4,3l-103.4,3l-3,36.1l-3,36.1l53.2,6c62.3,8,95.4,29.1,125.5,83.3c26.1,45.2,53.2,155.6,53.2,214.9v41.2l-77.3-3
		l-78.3-3l-6-70.3c-7-83.3-33.1-177.7-54.2-195.8c-13.1-11-15.1,7-15.1,154.6v166.7h-80.3h-80.3V7006.7z"/>
	<path class="st0" d="M4427.5,5626c-113.5-20.1-200.8-83.3-242-174.7c-18.1-41.2-23.1-68.3-22.1-136.6
		c0-172.7,83.3-270.1,256.1-301.2c97.4-18.1,270.1,5,270.1,36.1c0,7-8,27.1-17.1,44.2c-16.1,28.1-22.1,31.1-53.2,25.1
		c-166.7-27.1-224.9-13.1-263.1,64.3c-19.1,38.2-22.1,62.3-22.1,141.6c1,109.4,23.1,169.7,74.3,195.8c34.1,18.1,128.5,20.1,185.8,4
		c38.2-11,40.2-10,67.3,22.1c16.1,18.1,27.1,38.2,25.1,44.2C4677.6,5619,4511.9,5642.1,4427.5,5626z"/>
	<path class="st0" d="M4960.7,5623c-100.4-23.1-152.6-64.3-192.8-152.6c-32.1-70.3-32.1-238-1-307.3
		c49.2-107.4,137.6-154.6,289.2-153.6c207.9,1,304.2,108.4,294.2,329.4c-6,147.6-58.2,233-165.7,271.1
		C5124.4,5631,5024,5637,4960.7,5623z M5133.4,5524.6c36.1-19.1,48.2-69.3,48.2-204.8c0-189.8-16.1-215.9-134.6-215.9
		c-108.4,0-135.6,40.2-136.6,206.8c0,106.4,15.1,175.7,46.2,202.8c20.1,18.1,37.2,22.1,90.4,22.1
		C5083.2,5535.6,5121.4,5530.6,5133.4,5524.6z"/>
	<path class="st0" d="M6248,5625c-160.7-28.1-263.1-148.6-263.1-310.3c0-93.4,24.1-156.6,83.3-214.9
		c56.2-56.2,113.5-80.3,218.9-92.4c62.3-7,188.8,11,215.9,30.1c17.1,13.1,16.1,15.1-2,47.2c-22.1,37.2-9,35.1-164.7,23.1
		c-122.5-9-172.7,45.2-177.7,195.8c-6,163.7,41.2,232,160.7,232c33.1,0,78.3-5,100.4-12c38.2-12,41.2-11,63.3,18.1
		c34.1,41.2,31.1,59.2-13.1,72.3C6412.7,5630,6307.3,5636,6248,5625z"/>
	<path class="st0" d="M6797.3,5626c-92.4-16.1-172.7-78.3-206.8-159.7c-21.1-50.2-28.1-187.8-13.1-250
		c16.1-71.3,60.2-136.6,112.5-166.7c63.3-37.2,167.7-51.2,258.1-36.1c146.6,25.1,218.9,110.5,228.9,274.1
		c8,124.5-19.1,209.9-86.4,270.1c-27.1,24.1-66.3,49.2-87.4,56.2C6946.9,5630,6850.5,5636,6797.3,5626z M6951.9,5524.6
		c37.2-17.1,50.2-54.2,55.2-161.7c6-135.6-4-205.8-33.1-235c-20.1-20.1-34.1-24.1-89.4-24.1c-119.5,0-137.6,22.1-144.6,178.7
		c-6,138.6,3,188.8,38.2,224.9c25.1,25.1,36.1,28.1,89.4,28.1C6900.7,5535.6,6938.8,5530.6,6951.9,5524.6z"/>
	<path class="st0" d="M5542.1,5610.9c-14.1-8-35.1-27.1-45.2-42.2c-17.1-25.1-19.1-52.2-22.1-280.1c-3-211.9-1-253,11-264.1
		c10-7,40.2-11,84.3-9l68.3,3l3,132.5l3,132.5l122.5,3l122.5,3l3,41.2c4,51.2-3,54.2-145.6,54.2h-103.4v59.2
		c0,36.1,5,63.3,13.1,69.3c8,7,67.3,13.1,138.6,14.1l124.5,3v45.2v45.2l-175.7,2C5607.4,5625,5562.2,5622,5542.1,5610.9z"/>
	<path class="st1" d="M4302,4586.7c-4-9-19.1-15.1-38.2-15.1c-55.2,0-57.2-5-54.2-136.6l3-119.5h125.5h125.5l3,114.5
		c2,75.3-1,118.5-9,127.5c-7,9-32.1,14.1-71.3,14.1c-49.2,0-59.2,3-54.2,15.1c3,9,0,15.1-10,15.1
		C4314.1,4601.8,4305,4594.8,4302,4586.7z M4446.6,4519.5l3-28.1h-110.5h-111.5v30.1v31.1l108.4-3l107.4-3L4446.6,4519.5z
		 M4446.6,4444.1l-3-28.1l-107.4-3l-108.4-3v31.1v30.1h111.5h110.5L4446.6,4444.1z M4445.6,4374.9c4-47.8-9.5-45.7-92.9-48.7
		c-124.5,1-125-2.5-125,34.6v30.1h105.4C4422.5,4390.9,4440.6,4387.9,4445.6,4374.9z"/>
	<path class="st1" d="M4587.2,4546.6c-15.1-30.1-22.1-55.2-18.1-55.2c5,0,17.1-12,27.1-26.1c16.1-26.1,16.1-27.1-6-45.2
		s-22.1-19.1-3-19.1c38.2,0,122.5,121.5,108.4,156.6c-3,8-19.1,14.1-36.1,14.1c-20.1,0-30.1,5-30.1,15.1
		C4629.4,4615.9,4613.3,4600.8,4587.2,4546.6z M4669.5,4544.6c0-35.1-14.1-42.2-38.2-22.1c-27.1,22.1-21.1,39.2,14.1,39.2
		C4661.5,4561.6,4669.5,4555.6,4669.5,4544.6z M4632.4,4496.4c20.1-28.1,7-42.2-23.1-23.1c-20.1,13.1-26.1,29.1-13.1,41.2
		C4606.3,4525.5,4613.3,4522.5,4632.4,4496.4z"/>
	<path class="st1" d="M4749.9,4571.7c0-23.1-4-30.1-20.1-30.1c-11,0-20.1-4-20.1-10c0-5,7-10,15.1-10c26.1,0,17.1-35.1-21.1-78.3
		c-30.1-36.1-33.1-42.2-16.1-42.2c11,0,31.1,17.1,48.2,41.2l28.1,41.2l20.1-41.2c11-23.1,26.1-41.2,34.1-41.2c7,0,12,3,10,8
		c-29.1,59.2-44.2,88.4-50.2,90.4c-20.1,9-4,22.1,27.1,22.1c19.1,0,35.1,5,35.1,10c0,6-16.1,10-35.1,10c-32.1,0-35.1,2-35.1,30.1
		c0,17.1-4,30.1-10,30.1C4754.9,4601.8,4749.9,4588.7,4749.9,4571.7z"/>
	<path class="st1" d="M4790,4596.8c0-18.1,19.1-40.2,26.1-32.1c4,4,0,15.1-9,24.1C4798.1,4598.8,4790,4601.8,4790,4596.8z"/>
	<path class="st1" d="M5027,4576.7c6-24.1,5-25.1-49.2-25.1c-31.1,0-59.2-4-62.3-10c-4-6,35.1-10,109.4-10c84.3,0,116.5-3,116.5-12
		c0-7-32.1-43.2-70.3-81.3c-69.3-67.3-72.3-69.3-91.4-51.2c-10,9-21.1,15.1-22.1,13.1c-11-14.1-47.2-77.3-47.2-83.3
		c0-17.1,21.1-2,36.1,25.1l16.1,31.1l32.1-31.1c31.1-30.1,34.1-31.1,116.5-29.1l85.4,1l-82.3,6c-45.2,3-87.4,11-94.4,18.1
		c-9,9,6,30.1,70.3,90.4c44.2,43.2,81.3,86.4,81.3,95.4c0,20.1-28.1,31.1-62.3,24.1c-30.1-5-41.2,1-57.2,32.1
		C5036,4609.8,5019,4607.8,5027,4576.7z"/>
	<path class="st1" d="M5251.9,4592.8c0-15.1,38.2-56.2,45.2-49.2c8,8-23.1,58.2-36.1,58.2
		C5255.9,4601.8,5251.9,4597.8,5251.9,4592.8z"/>
	<path class="st1" d="M5349.3,4594.8c-4-3-7-43.2-7-87.4c-1-78.3-10-142.6-25.1-178.7c-10-25.1,12-23.1,25.1,2
		c6,12,12,71.3,13.1,133.5l2,112.5l43.2,3c47.2,4,57.2-13.1,16.1-28.1c-23.1-9-25.1-14.1-22.1-57.2c3-41.2,6-48.2,26.1-51.2
		c20.1-3,22.1-9,22.1-62.3c0-47.2-3-59.2-17.1-63.3c-11-3-7-5,10-6c26.1-1,27.1,1,27.1,52.2c0,59.2,7,73.3,35.1,78.3
		c17.1,4,20.1,12,20.1,54.2c0,47.2-2,50.2-27.1,53.2c-42.2,5-36.1,32.1,7,32.1c19.1,0,35.1,5,35.1,10
		C5533.1,4602.8,5360.4,4605.8,5349.3,4594.8z M5500.9,4519.5c3-15.1-4-18.1-42.2-18.1c-32.1,0-46.2,4-46.2,13.1
		c0,22.1,12,28.1,50.2,25.1C5486.9,4537.5,5498.9,4530.5,5500.9,4519.5z M5500.9,4474.3c-2-14.1-13.1-18.1-43.2-18.1
		s-41.2,4-43.2,18.1c-3,14.1,4,17.1,43.2,17.1S5504,4488.3,5500.9,4474.3z"/>
	<path class="st1" d="M5867.5,4594.8c-109.4-4-145.6-23.1-43.2-23.1c33.1,0,60.2-4,60.2-10c0-6-30.1-10-70.3-10
		c-40.2,0-70.3-4-70.3-10s30.1-10,70.3-10c40.2,0,70.3-4,70.3-10c0-5-20.1-10-44.2-10c-69.3,0-76.3-6-76.3-61.3V4402l58.2-3
		c43.2-2,57.2-7,57.2-18.1s-16.1-17.1-60.2-21.1l-60.2-6l63.3-1c47.2-2,62.3-6,62.3-17.1c0-10-17.1-15.1-67.3-18.1
		c-38.2-2,0-3,82.3-3c83.3,0,117.5,2,78.3,3c-56.2,3-73.3,7-73.3,18.1c0,12,16.1,15.1,68.3,17.1l67.3,1l-65.3,6
		c-49.2,5-65.3,10-65.3,21.1s15.1,16.1,55.2,20.1l55.2,5l3,44.2c4,53.2-5,61.3-70.3,61.3c-27.1,0-48.2,5-48.2,10
		c0,6,30.1,10,70.3,10c40.2,0,70.3,4,70.3,10s-30.1,10-71.3,10c-85.4,0-93.4,22.1-11,30.1c54.2,6,86.4,22.1,36.1,18.1
		C5982.9,4598.8,5923.7,4595.8,5867.5,4594.8z M5884.5,4476.3c0-11-12-15.1-50.2-15.1c-38.2,0-50.2,4-50.2,15.1
		c0,11,12,15.1,50.2,15.1C5872.5,4491.3,5884.5,4487.3,5884.5,4476.3z M6005,4476.3c0-11-12-15.1-50.2-15.1
		c-38.2,0-50.2,4-50.2,15.1c0,11,12,15.1,50.2,15.1C5993,4491.3,6005,4487.3,6005,4476.3z M5882.5,4429.1c3-15.1-4-18.1-47.2-18.1
		c-36.1,0-51.2,4-51.2,13.1c0,23.1,12,28.1,55.2,25.1C5868.5,4447.2,5880.5,4441.1,5882.5,4429.1z M6003,4429.1
		c3-15.1-4-18.1-47.2-18.1c-36.1,0-51.2,4-51.2,13.1c0,23.1,12,28.1,55.2,25.1C5988.9,4447.2,6001,4441.1,6003,4429.1z"/>
	<path class="st1" d="M6155.6,4591.8c0-5,7-10,16.1-10c8,0,12,5,9,10c-3,6-10,10-16.1,10C6159.6,4601.8,6155.6,4597.8,6155.6,4591.8
		z"/>
	<path class="st1" d="M6225.9,4581.7c-8-15.1-22.1-20.1-58.2-22.1c-43.2-1-44.2-2-9-5c33.1-4,37.2-7,37.2-34.1
		c0-34.1-29.1-41.2-37.2-9c-7,27.1-25.1,25.1-21.1-2c2-15.1,11-24.1,26.1-26.1c27.1-4,28.1-12,2-40.2c-16.1-17.1-18.1-22.1-6-22.1
		c9,0,25.1,14.1,38.2,30.1c13.1,18.1,31.1,30.1,45.2,30.1c18.1,0,23.1,6,23.1,25.1c0,14.1-4,25.1-10,25.1c-5,0-10-9-10-20.1
		s-7-20.1-15.1-20.1c-10,0-15.1,10-15.1,30.1c0,27.1,3,30.1,33.1,31.1c17.1,1,24.1,3,14.1,6c-12,3-16.1,10-12,24.1
		C6259.1,4607.8,6240,4607.8,6225.9,4581.7z"/>
	<path class="st1" d="M6520.1,4553.6c-13.1-26.1-18.1-48.2-13.1-50.2c6-2,10-45.2,10-98.4c0-77.3,3-94.4,15.1-94.4
		s15.1,17.1,15.1,94.4c0,58.2-4,96.4-11,98.4c-6,2-3,21.1,10,51.2C6573.3,4617.9,6550.3,4617.9,6520.1,4553.6z"/>
	<path class="st1" d="M6590.4,4546.6c-16.1-41.2-17.1-55.2-8-55.2c7,0,18.1,14.1,24.1,30.1c10,31.1,11,31.1,78.3,28.1
		c67.3-3,71.3-6,58.2-40.2c-5-12-2-18.1,8-18.1c14.1,0,30.1,47.2,20.1,62.3c-2,5-35.1,8-74.3,8c-62.3,0-69.3,2-69.3,20.1
		C6627.6,4618.9,6610.5,4602.8,6590.4,4546.6z"/>
	<path class="st1" d="M6933.8,4590.8c-74.3-11-90.4-17.1-47.2-18.1c27.1-1,32.1-5,32.1-26.1c0-22.1-4-25.1-35.1-25.1
		c-19.1,0-35.1-4-35.1-10c0-5,16.1-10,35.1-10c33.1,0,35.1-2,35.1-35.1c0-31.1-3-36.1-30.1-42.2c-17.1-3-33.1-10-37.2-16.1
		c-4-6,7-7,31.1-3l36.1,7v-45.2c0-38.2-3-45.2-22.1-49.2c-13.1-3-7-4,12-4l35.1,2l3,53.2c3,49.2,6,54.2,33.1,64.3
		c16.1,5,29.1,14.1,29.1,19.1c0,6-8,5-19.1-1c-32.1-16.1-41.2-12-41.2,21.1c0,29.1,1,30.1,42.2,27.1l43.2-3l8-55.2
		c8-55.2,8-55.2-30.1-87.4c-42.2-36.1-28.1-45.2,18.1-12l29.1,20.1l10-25.1c7-20.1,16.1-26.1,37.2-25.1c27.1,0,27.1,1,6,9
		c-34.1,14.1-39.2,54.2-14.1,105.4c23.1,47.2,25.1,55.2,12,55.2c-5,0-14.1-14.1-21.1-31.1c-15.1-34.1-27.1-28.1-32.1,16.1
		c-3,29.1-1,30.1,40.2,33.1c56.2,4,54.2,22.1-3,22.1h-45.2v40.2c0,22.1-4,40.2-10,40.2c-5,0-10-18.1-10-40.2v-40.2h-40.2
		c-38.2,0-40.2,2-40.2,30.1c0,27.1,3,30.1,30.1,30.1c17.1,0,30.1,5,30.1,10c0,6-3,9-7,9C6997.1,4599.8,6967,4595.8,6933.8,4590.8z"
		/>
	<path class="st1" d="M6303.2,4585.7c-4-4-7-29.1-7-56.2c0-27.1-7-62.3-15.1-78.3c-13.1-25.1-13.1-30.1-1-30.1
		c7,0,19.1,14.1,26.1,30.1c11,26.1,18.1,30.1,51.2,30.1c32.1,0,39.2-4,39.2-20.1c0-10-8-24.1-17.1-29.1c-16.1-9-16.1-10,4-11
		c28.1,0,36.1,27.1,31.1,107.4l-3,58.2l-50.2,3C6333.4,4591.8,6307.3,4589.7,6303.2,4585.7z M6394.6,4564.6c2-9-9-13.1-37.2-13.1
		c-30.1,0-41.2,4-41.2,16.1c0,11,9,14.1,37.2,12C6373.5,4577.7,6391.6,4570.7,6394.6,4564.6z M6396.6,4516.4c0-11-11-15.1-40.2-15.1
		s-40.2,4-40.2,15.1s11,15.1,40.2,15.1S6396.6,4527.5,6396.6,4516.4z"/>
	<path class="st1" d="M7081.4,4570.7c1-12,8-24.1,15.1-26.1c7-3,9,3,6,17.1C7094.5,4590.8,7077.4,4598.8,7081.4,4570.7z"/>
	<path class="st1" d="M5251.9,4516.4c0-15.1,32.1-65.3,41.2-65.3c6,0,9,3,7,8c-24.1,48.2-32.1,62.3-40.2,62.3
		C5255.9,4521.5,5251.9,4519.5,5251.9,4516.4z"/>
	<path class="st1" d="M6665.7,4424.1c-3-94.4-4-97.4-28.1-104.4c-21.1-7-19.1-8,10-6l35.1,2l3,103.4c2,63.3-1,102.4-7,102.4
		C6672.8,4521.5,6667.7,4480.3,6665.7,4424.1z"/>
	<path class="st1" d="M6590.4,4401c-16.1-54.2-17.1-70.3-7-70.3c13.1,0,44.2,86.4,44.2,122.5
		C6627.6,4492.3,6610.5,4468.2,6590.4,4401z"/>
	<path class="st1" d="M6731,4427.1c8-53.2,26.1-96.4,42.2-96.4c8,0,7,16.1-6,53.2c-10,28.1-18.1,60.2-19.1,70.3c0,9-5,17.1-11,17.1
		C6729,4471.3,6727,4457.2,6731,4427.1z"/>
	<path class="st1" d="M5288.1,4419c-9-30.1-24.1-74.3-31.1-90.4c-10-24.1,12-23.1,24.1,1c16.1,30.1,30.1,101.4,20.1,101.4
		C5296.1,4431.1,5290.1,4425.1,5288.1,4419z"/>
	<path class="st1" d="M5389.5,4388.9c-2-13.1-8-31.1-12-40.2c-4-10-3-18.1,3-18.1c9,0,32.1,51.2,32.1,71.3
		C5412.6,4421.1,5394.5,4410,5389.5,4388.9z"/>
	<path class="st1" d="M5492.9,4402c0-19.1,23.1-71.3,31.1-71.3c12,0,11,10-2,49.2C5512,4408,5492.9,4423.1,5492.9,4402z"/>
	<path class="st1" d="M6213.9,4393.9c-74.3-5-76.3-23.1-2-23.1c52.2,0,55.2-1,52.2-22.1c-3-21.1-10-24.1-73.3-29.1
		c-46.2-4-19.1-5,80.3-5c83.3,0,120.5,1,83.3,3c-65.3,4-68.3,5-68.3,28.1c0,24.1,3,25.1,55.2,25.1c30.1,0,55.2,5,55.2,10
		c0,6-22.1,10-49.2,10s-55.2,1-63.3,3C6277.1,4396,6245,4394.9,6213.9,4393.9z"/>
	<path class="st1" d="M4576.2,4363.8c-2-10-8-26.1-12-35.1c-12-30.1,13.1-20.1,30.1,12c18.1,36.1,19.1,40.2,1,40.2
		C4588.2,4380.9,4579.2,4372.9,4576.2,4363.8z"/>
	<path class="st1" d="M4642.4,4345.7c6-19.1,16.1-35.1,23.1-35.1c9,0,10,8,1,35.1c-6,19.1-16.1,35.1-23.1,35.1
		C4634.4,4380.9,4633.4,4372.9,4642.4,4345.7z"/>
	<path class="st1" d="M4709.7,4371.9c0-21.1,24.1-61.3,36.1-61.3c11,0,10,6,0,32.1C4731.8,4374.9,4709.7,4392.9,4709.7,4371.9z"/>
	<path class="st1" d="M4793,4348.8c7-18.1,21.1-34.1,29.1-36.1c14.1-3,14.1,0,0,32.1C4800.1,4391.9,4774,4394.9,4793,4348.8z"/>
</g>
<path class="st0" d="M11.3-54.4"/>
<ellipse transform="matrix(0.9627 -0.2707 0.2707 0.9627 -48.8562 31.567)" class="st2" cx="90" cy="192.9" rx="81.2" ry="23.5"/>
<ellipse transform="matrix(0.6939 -0.7201 0.7201 0.6939 -95.8993 233.496)" class="st2" cx="226.7" cy="229.5" rx="23.5" ry="81.2"/>
<path class="st2" d="M168.9,173.3c12.5,3.7,27.6-31.3,40.5-74.4c12.9-43,13.3-80.8,0.8-84.5c-12.5-3.7-32.9,28.1-45.8,71.1
	C151.6,128.4,156.5,169.6,168.9,173.3z"/>
<linearGradient id="SVGID_1_" gradientUnits="userSpaceOnUse" x1="172.3186" y1="194.6687" x2="341.1767" y2="194.6687" gradientTransform="matrix(1.0121 7.047813e-03 -7.047813e-03 -1.0041 -2.5602 342.5026)">
	<stop  offset="4.749672e-07" style="stop-color:#44B3D8"/>
	<stop  offset="1" style="stop-color:#47B3CD"/>
</linearGradient>
<path class="st3" d="M215,11.6l1.1-1c1.6-1.5,3.7-2.3,5.8-2.4l0,0c2.6-0.1,5.2,0.9,7,2.8l109.5,110.8c2.3,2.3,3.2,5.6,2.4,8.7
	l-38.1,152c-0.2,0.8-0.5,1.6-0.9,2.3c-2.3,4-6.9,5.5-10.9,4.1l-0.2-0.1c-2.2-0.8-4.1-2.4-5.2-4.5c0.7,1.1-7.5-13.9-16.8-30.1
	c-8.9-15.8-19.7-30.5-31.9-44l0,0c-5.5-6-19.1-15.9-19.2-15.9c-11.3-7.1-46.7-21.7-47.1-22.9c-0.3-0.8,22-36.5,29.8-52
	c0.5-0.9,3.7-6.3,9-23.6c2.5-8,3.1-12.3,4.1-18.3c1.7-10.8,2-22,1-32.9l-2.3-25.1C211.8,16.5,212.8,13.7,215,11.6z"/>
<linearGradient id="SVGID_2_" gradientUnits="userSpaceOnUse" x1="0" y1="237.0587" x2="213.4038" y2="237.0587" gradientTransform="matrix(1 0 0 -1 0 344)">
	<stop  offset="7.928587e-07" style="stop-color:#455A82"/>
	<stop  offset="1" style="stop-color:#47B3CD"/>
</linearGradient>
<path class="st4" d="M8,211.4L6.6,211c-2.1-0.6-3.9-2-5.1-3.8l0,0c-1.4-2.2-1.8-4.8-1.1-7.3l41.3-148c0.9-3.1,3.3-5.5,6.4-6.4
	L201.6,2.5c0.8-0.2,1.6-0.4,2.4-0.4c4.6,0,8.4,3.1,9.2,7.3v0.2c0.5,2.3,0,4.7-1.3,6.6c0.7-1.1-8.3,13.3-18,29.1
	c-9.3,15.5-16.9,31.8-22.3,49l0,0c-2.5,7.7-3.9,15.8-4.1,23.8c0,0.1,0,0.2,0,0.3c-0.4,13.2,3.9,51.9,3.1,52.8
	c-0.6,0.6-42.5-2-60.1-1c-1.1,0.1-7.5-0.1-25.5,4c-8.3,1.9-12.5,3.4-18.2,5.5c-10.4,3.9-20.4,9.1-29.5,15.5l-21,14.5
	C13.9,211.7,10.8,212.3,8,211.4z"/>
<linearGradient id="SVGID_3_" gradientUnits="userSpaceOnUse" x1="7.2566" y1="87.8625" x2="286.0294" y2="87.8625" gradientTransform="matrix(1.0119 -1.993529e-03 1.993529e-03 -1.0096 -1.5795 344.8432)">
	<stop  offset="4.749672e-07" style="stop-color:#D86C43"/>
	<stop  offset="1" style="stop-color:#E8A544"/>
</linearGradient>
<path class="st5" d="M287.4,288.8l0.3,1.4c0.5,2.1,0.2,4.3-0.8,6.3l0,0c-1.2,2.3-3.4,4-5.9,4.7l-150.5,38.7
	c-3.1,0.8-6.4-0.1-8.7-2.3L8.8,227.2c-0.6-0.6-1.1-1.2-1.5-1.9c-2.3-4-1.3-8.7,1.9-11.5l0.2-0.1c1.8-1.6,4.1-2.4,6.5-2.2
	c-1.3,0,15.8,0.5,34.4,0.8c18.2,0.3,36.2-1.5,54-5.3l0,0c8-1.7,15.8-4.5,23-8.4c0.1-0.1,0.2-0.1,0.3-0.2c11.7-6.2,41.8-27,43-26.8
	c0.8,0.2,21.1,35.2,30.6,49.9c0.6,0.9,3.6,6.4,16,19.9c5.8,6.2,9,8.9,13.8,12.9c8.5,7,18,13,28.1,17.7l23,10.7
	C284.8,283.6,286.8,286,287.4,288.8z"/>
</svg>
